<?xml version="1.0" standalone="no"?>
<!DOCTYPE svg PUBLIC "-//W3C//DTD SVG 20010904//EN"
 "http://www.w3.org/TR/2001/REC-SVG-20010904/DTD/svg10.dtd">
<svg version="1.0" xmlns="http://www.w3.org/2000/svg"
 width="651.000000pt" height="212.000000pt" viewBox="0 0 651.000000 212.000000"
 preserveAspectRatio="xMidYMid meet">

<g transform="translate(0.000000,212.000000) scale(0.100000,-0.100000)"
fill="#000000" stroke="none">
<path d="M5878 2072 l-158 -3 0 -833 c0 -518 4 -853 10 -886 24 -128 98 -229
202 -275 118 -53 292 -56 432 -9 l48 16 -6 47 c-3 25 -8 88 -12 139 -6 89 -7
92 -28 86 -143 -46 -259 -23 -297 60 -18 39 -19 82 -20 806 0 421 -4 785 -7
810 l-7 45 -157 -3z"/>
<path d="M5030 1915 l0 -155 165 0 165 0 0 155 0 155 -165 0 -165 0 0 -155z"/>
<path d="M800 1818 c-90 -206 -632 -1459 -700 -1618 l-57 -135 175 -3 c96 -1
177 0 179 2 5 4 197 467 472 1139 81 197 151 358 156 359 5 0 100 -222 210
-494 111 -271 249 -608 307 -748 l104 -255 177 -3 c117 -2 177 1 177 8 0 20
-753 1760 -806 1863 l-15 27 -158 0 -158 0 -63 -142z"/>
<path d="M3882 1530 c-221 -40 -417 -182 -510 -370 -64 -131 -84 -219 -84
-380 1 -203 45 -347 147 -480 86 -112 229 -205 380 -246 91 -25 294 -30 396
-10 173 34 344 145 440 288 22 31 39 59 39 62 0 3 -57 35 -127 70 l-128 66
-30 -38 c-82 -103 -176 -157 -301 -175 -196 -29 -382 64 -460 227 -19 39 -34
83 -34 98 l0 28 573 2 572 3 -1 120 c-2 179 -40 311 -131 447 -85 129 -232
233 -388 274 -72 18 -279 27 -353 14z m221 -280 c157 -25 285 -137 325 -282
l10 -38 -414 0 -415 0 7 23 c34 114 116 210 219 258 94 44 170 55 268 39z"/>
<path d="M1740 1504 c0 -7 216 -521 455 -1084 l150 -355 157 -3 156 -2 32 77
c18 43 108 256 200 473 92 217 209 494 260 615 51 121 99 235 107 253 l13 32
-174 0 -175 0 -77 -197 c-42 -109 -133 -339 -201 -511 -67 -172 -123 -317
-123 -322 0 -51 -48 56 -226 505 l-209 525 -172 0 c-95 0 -173 -3 -173 -6z"/>
<path d="M5030 785 l0 -725 165 0 165 0 0 725 0 725 -165 0 -165 0 0 -725z"/>
<path d="M857 793 c-10 -17 -107 -264 -107 -273 0 -6 101 -10 275 -10 214 0
275 3 275 13 -1 6 -25 71 -54 142 l-52 130 -166 3 c-92 1 -169 -1 -171 -5z"/>
</g>
</svg>
